<?xml version="1.0" standalone="no"?>
<!DOCTYPE svg PUBLIC "-//W3C//DTD SVG 20010904//EN"
 "http://www.w3.org/TR/2001/REC-SVG-20010904/DTD/svg10.dtd">
<svg version="1.0" xmlns="http://www.w3.org/2000/svg"
 width="1109.000000pt" height="1280.000000pt" viewBox="0 0 1109.000000 1280.000000"
 preserveAspectRatio="xMidYMid meet">
<metadata>
Created by potrace 1.15, written by Peter Selinger 2001-2017
</metadata>
<g transform="translate(0.000000,1280.000000) scale(0.100000,-0.100000)"
fill="#000000" stroke="none">
<path d="M2774 11201 l-2769 -1598 0 -3203 0 -3203 990 -571 c545 -314 1788
-1032 2764 -1595 976 -564 1780 -1024 1786 -1024 6 0 810 460 1786 1024 976
563 2220 1281 2764 1595 l990 571 0 3203 0 3203 -2735 1579 c-1504 868 -2751
1588 -2771 1598 l-36 19 -2769 -1598z m4912 -201 c1165 -673 2298 -1326 2517
-1452 l397 -230 0 -2918 0 -2917 -442 -256 c-244 -140 -1068 -616 -1833 -1057
-764 -442 -1702 -982 -2083 -1202 -381 -220 -699 -398 -706 -395 -13 5 -440
252 -3724 2146 l-1322 764 0 2917 0 2918 443 256 c243 140 1378 795 2522 1456
1144 660 2087 1199 2096 1197 9 -3 969 -555 2135 -1227z"/>
<path d="M6850 9841 c-375 -83 -670 -366 -772 -741 -31 -115 -33 -375 -4 -489
18 -71 18 -75 1 -87 -10 -7 -537 -313 -1172 -679 l-1154 -666 -64 59 c-125
117 -268 195 -445 244 -73 20 -109 23 -250 23 -141 0 -177 -3 -249 -23 -369
-101 -645 -377 -736 -737 -121 -476 112 -966 558 -1175 223 -105 472 -124 710
-55 84 24 223 87 278 126 l25 18 1205 -695 1205 -695 -19 -72 c-27 -105 -33
-298 -13 -415 57 -326 276 -610 579 -752 149 -70 226 -85 432 -84 166 0 187 2
270 27 389 117 666 430 730 822 54 331 -63 672 -309 902 -198 186 -422 273
-701 273 -268 0 -503 -93 -691 -272 l-61 -58 -1159 669 c-689 398 -1158 675
-1157 683 1 7 17 49 37 94 64 144 79 219 80 394 1 120 -3 174 -18 238 -12 50
-16 86 -10 92 5 4 533 311 1172 680 l1164 671 59 -58 c76 -74 151 -125 264
-179 434 -206 955 -78 1245 307 305 406 267 968 -90 1330 -122 124 -271 212
-450 266 -118 35 -362 42 -490 14z"/>
</g>
</svg>
