<?xml version="1.0" standalone="no"?>
<!DOCTYPE svg PUBLIC "-//W3C//DTD SVG 20010904//EN"
 "http://www.w3.org/TR/2001/REC-SVG-20010904/DTD/svg10.dtd">
<svg version="1.0" xmlns="http://www.w3.org/2000/svg"
 width="128.000000pt" height="128.000000pt" viewBox="0 0 128.000000 128.000000"
 preserveAspectRatio="xMidYMid meet">
<metadata>
Created by potrace 1.14, written by Peter Selinger 2001-2017
</metadata>
<g transform="translate(0.000000,128.000000) scale(0.100000,-0.100000)"
fill="#000000" stroke="none">
<path d="M376 1135 c-137 -80 -252 -145 -256 -145 -4 0 -15 -9 -24 -19 -16
-18 -18 -47 -18 -308 0 -158 1 -301 1 -318 1 -25 9 -34 49 -56 26 -15 145 -83
265 -152 119 -69 226 -129 237 -132 14 -4 89 34 257 131 131 76 250 144 264
151 53 27 52 22 52 352 0 170 -3 313 -7 319 -3 6 -111 71 -239 145 -262 152
-307 177 -322 177 -5 -1 -122 -66 -259 -145z m225 13 c3 -63 0 -230 -3 -234
-3 -2 -44 -26 -92 -53 l-88 -49 -57 32 c-31 17 -80 45 -108 61 -29 17 -52 33
-50 37 2 8 377 227 390 227 4 1 7 -9 8 -21z m284 -90 c107 -61 195 -115 195
-118 0 -4 -39 -28 -87 -55 -49 -27 -97 -55 -109 -62 -18 -11 -30 -7 -110 38
-49 28 -91 53 -93 55 -7 6 -4 254 4 254 2 0 92 -50 200 -112z m-615 -250 l107
-62 0 -106 1 -107 -108 -61 c-60 -34 -110 -62 -113 -62 -3 0 -5 104 -5 230 0
127 3 230 6 230 3 0 53 -28 112 -62z m857 -168 c0 -126 -2 -230 -5 -230 -2 0
-53 28 -112 62 l-108 63 0 103 1 104 36 23 c56 36 175 104 182 105 4 0 6 -103
6 -230z m-421 174 c35 -20 66 -39 69 -44 6 -9 -116 -80 -137 -80 -7 1 -42 18
-77 39 -63 39 -63 39 -40 54 42 25 114 66 117 67 2 0 33 -16 68 -36z m-184
-150 c34 -19 67 -39 72 -44 4 -4 8 -34 8 -67 0 -114 7 -108 -74 -59 l-73 43
-1 81 c-1 45 -1 82 1 82 2 0 32 -16 67 -36z m305 -44 l1 -81 -39 -24 c-21 -14
-41 -25 -45 -25 -3 0 -19 -9 -35 -21 -21 -14 -29 -17 -30 -7 -1 20 -1 131 0
145 1 10 125 91 142 93 3 0 6 -36 6 -80z m-243 -246 c17 -11 19 -27 19 -136 0
-76 -3 -123 -10 -123 -13 0 -393 217 -393 225 0 4 48 34 108 67 l107 61 75
-40 c41 -23 84 -47 94 -54z m313 75 c128 -71 183 -104 183 -109 0 -9 -391
-233 -397 -226 -3 3 -6 60 -6 127 l0 122 89 53 c49 29 90 53 91 53 1 1 19 -8
40 -20z"/>
</g>
</svg>
