<?xml version="1.0" standalone="no"?>
<!DOCTYPE svg PUBLIC "-//W3C//DTD SVG 20010904//EN"
 "http://www.w3.org/TR/2001/REC-SVG-20010904/DTD/svg10.dtd">
<svg version="1.0" xmlns="http://www.w3.org/2000/svg"
 width="1707.000000pt" height="1707.000000pt" viewBox="0 0 1707.000000 1707.000000"
 preserveAspectRatio="xMidYMid meet">
<metadata>
Created by potrace 1.14, written by Peter Selinger 2001-2017
</metadata>
<g transform="translate(0.000000,1707.000000) scale(0.100000,-0.100000)"
fill="#000000" stroke="none">
<path d="M8460 17026 c-41 -23 -167 -96 -280 -161 -113 -65 -218 -126 -235
-135 -55 -32 -1502 -867 -1685 -973 -19 -11 -53 -30 -75 -42 -22 -12 -123 -71
-225 -130 -102 -59 -223 -129 -270 -156 -47 -27 -92 -54 -100 -58 -8 -5 -96
-56 -194 -113 -99 -57 -200 -115 -225 -130 -25 -15 -53 -31 -61 -35 -8 -4 -37
-20 -65 -36 -47 -28 -94 -55 -437 -253 -73 -42 -190 -110 -260 -150 -70 -41
-142 -82 -160 -93 -173 -99 -592 -341 -803 -463 -71 -41 -249 -144 -395 -228
-246 -142 -711 -411 -1165 -672 -104 -61 -296 -171 -425 -245 -129 -75 -239
-139 -244 -144 -6 -6 -10 -1614 -10 -4271 l-1 -4263 24 -23 c14 -12 35 -25 48
-28 13 -4 23 -10 23 -15 0 -5 4 -9 10 -9 5 0 33 -14 62 -31 29 -18 67 -39 83
-49 47 -26 418 -241 435 -251 8 -4 53 -31 100 -58 47 -27 141 -81 210 -121 69
-40 150 -86 180 -103 30 -17 71 -40 90 -52 19 -12 67 -39 105 -60 39 -21 77
-43 85 -49 8 -6 24 -16 35 -22 52 -28 115 -64 165 -94 30 -18 75 -44 100 -58
25 -14 259 -149 520 -300 261 -151 491 -283 510 -294 19 -11 64 -37 100 -58
36 -21 81 -47 100 -58 19 -11 75 -43 123 -71 49 -28 93 -51 98 -51 5 0 9 -4 9
-8 0 -4 12 -13 28 -20 15 -7 36 -18 47 -25 11 -6 47 -27 80 -46 33 -19 125
-73 205 -119 80 -47 165 -96 190 -110 25 -14 142 -81 260 -150 118 -69 240
-138 270 -155 30 -17 83 -48 118 -69 34 -21 64 -38 66 -38 2 0 82 -46 177
-101 96 -56 221 -129 279 -162 146 -83 150 -86 290 -167 69 -40 134 -78 145
-84 90 -51 243 -139 255 -147 18 -11 226 -131 290 -167 25 -14 57 -32 72 -41
323 -187 884 -507 894 -509 8 -2 14 -8 14 -13 0 -5 4 -9 9 -9 4 0 100 -52 211
-116 112 -63 220 -124 241 -135 l38 -19 168 96 c92 52 175 100 183 105 14 8
359 205 470 267 25 14 78 45 118 69 41 24 76 43 78 43 2 0 21 11 42 23 20 13
57 35 82 49 25 14 86 49 135 78 50 29 108 62 130 75 38 21 393 226 425 245 30
18 196 114 235 135 22 13 155 89 295 170 140 81 273 158 295 170 22 13 81 46
130 75 50 29 110 64 135 78 25 13 70 39 100 57 69 41 350 204 410 237 146 82
467 269 477 278 7 5 14 10 17 10 3 0 209 118 458 262 249 144 476 274 503 290
69 39 183 105 225 130 112 65 371 215 405 233 22 12 87 50 143 83 57 34 105
62 106 62 2 0 66 37 142 81 76 45 159 93 184 107 25 14 72 40 105 60 33 19 76
44 95 55 19 10 181 104 360 207 179 103 341 197 360 208 19 11 62 36 95 55 33
19 81 47 107 61 26 14 76 43 110 64 l62 38 0 4270 0 4269 -139 83 c-77 45
-147 86 -155 89 -8 4 -121 68 -250 143 -129 75 -255 148 -280 162 -25 14 -173
100 -330 190 -157 91 -298 173 -315 182 -16 9 -46 26 -65 37 -37 22 -400 233
-460 267 -19 10 -192 111 -385 222 -192 112 -365 211 -383 222 -18 10 -151 86
-295 170 -144 83 -275 158 -292 168 -61 35 -371 213 -745 430 -212 122 -402
232 -423 244 -21 11 -46 26 -55 31 -70 42 -587 341 -662 383 -25 14 -112 64
-195 112 -82 48 -400 231 -705 407 -305 176 -600 346 -655 378 -55 32 -116 67
-135 78 -19 11 -123 70 -230 132 -107 61 -204 117 -215 123 -17 8 -34 3 -95
-32z m585 -1007 c270 -155 506 -290 525 -301 19 -11 109 -63 200 -116 165 -95
197 -113 268 -153 20 -12 109 -63 197 -114 88 -51 176 -102 195 -112 19 -11
154 -89 300 -173 146 -84 285 -164 310 -178 25 -14 62 -36 82 -49 21 -12 40
-23 43 -23 3 0 31 -16 61 -35 30 -19 56 -35 58 -35 3 0 130 -73 606 -349 69
-40 132 -76 140 -81 73 -44 153 -90 155 -90 2 0 75 -42 210 -120 42 -25 604
-349 640 -370 17 -9 296 -170 620 -357 498 -287 815 -470 960 -553 486 -280
633 -365 645 -377 13 -12 15 -459 15 -3901 l1 -3887 -161 -94 c-88 -51 -252
-146 -365 -211 -113 -65 -219 -126 -237 -136 -66 -39 -219 -128 -248 -144 -16
-9 -133 -76 -258 -149 -126 -72 -243 -140 -260 -149 -18 -10 -51 -30 -74 -45
-24 -15 -45 -27 -47 -27 -2 0 -71 -39 -153 -86 -81 -48 -168 -98 -193 -112
-25 -13 -81 -46 -125 -72 -44 -26 -177 -102 -295 -170 -118 -68 -294 -169
-390 -225 -96 -56 -312 -181 -480 -277 -168 -97 -319 -184 -337 -194 -18 -11
-157 -91 -309 -179 -152 -88 -298 -172 -323 -187 -25 -15 -53 -31 -61 -35 -8
-4 -43 -24 -78 -45 -34 -21 -64 -38 -66 -38 -2 0 -45 -25 -95 -55 -51 -30 -93
-55 -96 -55 -2 0 -50 -27 -107 -61 -57 -34 -137 -80 -178 -104 -112 -64 -113
-64 -565 -325 -231 -133 -436 -251 -455 -262 -19 -11 -48 -27 -65 -37 -85 -50
-548 -310 -659 -371 -69 -37 -80 -36 -171 20 -36 22 -67 40 -69 40 -2 0 -64
35 -138 78 -74 43 -141 81 -149 85 -8 4 -30 17 -49 29 -19 12 -53 31 -75 43
-22 12 -65 37 -95 55 -30 18 -71 42 -90 53 -59 33 -753 434 -790 456 -19 11
-42 24 -50 28 -8 4 -49 27 -90 51 -41 25 -90 53 -108 63 -37 22 -442 255
-1247 719 -308 178 -616 355 -685 395 -146 84 -613 354 -750 433 -52 30 -115
66 -140 80 -48 27 -362 209 -470 272 -132 77 -317 184 -368 213 -30 16 -97 55
-150 86 -54 31 -104 60 -112 64 -8 4 -28 16 -45 27 -16 11 -37 23 -45 27 -8 4
-48 26 -88 50 -41 24 -76 43 -78 43 -3 0 -17 9 -32 19 -22 15 -519 303 -662
383 -19 11 -39 24 -45 29 -7 7 -10 1320 -11 3899 l0 3889 55 31 c31 17 63 35
71 40 22 14 1018 589 1065 615 22 12 99 56 170 97 389 225 590 341 680 393 55
32 114 65 130 75 17 9 185 107 375 217 190 109 407 235 483 279 76 43 155 89
175 102 20 12 44 25 52 29 8 4 42 23 75 43 33 20 67 39 75 43 8 4 22 11 30 17
30 19 222 130 226 130 2 0 28 16 58 35 30 19 57 35 60 35 3 0 34 17 68 38 35
21 88 52 118 69 64 36 179 101 410 235 91 52 242 139 335 193 94 54 213 123
265 153 52 30 120 69 150 85 30 17 66 38 80 47 14 9 50 30 80 47 30 16 118 66
195 110 200 115 193 111 380 218 94 54 190 109 215 123 25 14 92 52 150 85 58
33 139 79 180 102 41 24 131 75 200 114 69 38 132 70 140 71 8 0 236 -127 505
-281z"/>
<path d="M10428 13145 c-2 -1 -33 -5 -69 -9 -97 -9 -249 -54 -366 -108 -402
-185 -712 -595 -766 -1010 -24 -183 -14 -422 24 -582 11 -44 10 -51 -7 -63
-20 -15 -235 -143 -289 -172 -16 -9 -31 -19 -33 -23 -2 -5 -7 -8 -12 -8 -7 0
-103 -53 -180 -99 -77 -47 -738 -428 -754 -436 -12 -5 -23 -12 -26 -15 -3 -3
-72 -44 -155 -92 -82 -47 -165 -94 -182 -104 -18 -11 -110 -64 -205 -118 -95
-55 -252 -145 -348 -201 -231 -134 -507 -294 -546 -315 -16 -10 -90 -52 -164
-95 -182 -105 -199 -115 -208 -115 -5 0 -30 20 -58 45 -194 179 -379 283 -624
352 -91 26 -104 27 -335 27 -214 0 -248 -3 -318 -22 -310 -85 -577 -263 -762
-507 -135 -179 -219 -381 -261 -630 -10 -57 -11 -315 -2 -362 49 -255 104
-401 215 -571 94 -145 245 -294 390 -388 151 -98 359 -181 503 -201 19 -3 55
-9 80 -13 46 -9 307 -6 346 3 12 3 39 8 60 11 132 21 329 97 463 178 70 42 78
44 106 24 11 -7 40 -24 65 -38 44 -24 140 -80 170 -98 50 -31 153 -90 155 -90
2 0 86 -48 187 -106 101 -58 201 -116 223 -129 22 -12 123 -71 225 -130 102
-59 203 -118 225 -130 22 -12 56 -31 75 -42 128 -75 867 -502 975 -563 17 -9
104 -60 195 -112 91 -53 280 -162 420 -243 140 -81 257 -148 259 -151 2 -2 -6
-41 -17 -86 -41 -164 -49 -452 -17 -588 4 -14 9 -38 12 -55 10 -60 55 -182
103 -280 105 -217 297 -434 495 -557 155 -96 329 -167 455 -184 24 -4 56 -8
70 -10 38 -5 401 -5 430 0 14 3 41 7 61 10 57 9 206 64 311 116 377 187 642
529 730 945 23 108 32 350 17 441 -4 27 -11 67 -14 88 -4 22 -10 49 -15 60 -4
12 -8 25 -8 29 0 28 -54 169 -100 261 -141 281 -390 518 -672 638 -93 40 -251
83 -345 94 -75 9 -300 10 -380 1 -152 -16 -354 -85 -493 -166 -112 -66 -165
-107 -295 -229 l-35 -34 -188 110 c-104 60 -209 120 -234 134 -25 14 -154 88
-285 165 -132 76 -247 142 -255 146 -8 4 -28 15 -45 26 -37 22 -393 229 -455
263 -25 14 -110 63 -190 110 -80 47 -165 96 -190 110 -174 98 -1134 664 -1211
715 l-37 24 58 142 c83 206 92 253 95 497 2 170 -1 225 -18 323 -12 70 -16
122 -11 127 11 11 1118 657 1264 738 25 13 70 39 100 57 55 33 408 237 485
280 22 13 171 98 330 190 160 93 309 179 332 191 23 13 93 54 155 90 62 37
138 81 168 97 30 17 104 59 163 94 60 35 111 63 114 63 3 0 43 -36 89 -80 147
-141 341 -250 554 -312 204 -58 454 -63 685 -13 121 26 315 111 430 188 247
166 442 418 534 693 16 49 33 105 37 124 4 19 9 40 10 45 24 106 33 307 19
420 -54 428 -287 790 -653 1014 -46 28 -86 51 -89 51 -3 0 -33 13 -67 29 -77
36 -205 77 -271 86 -27 4 -63 9 -80 11 -32 5 -323 13 -327 9z"/>
</g>
</svg>
